<svg xmlns="http://www.w3.org/2000/svg" xmlns:xlink="http://www.w3.org/1999/xlink" version="1.1" x="0px" y="0px" viewBox="0 0 192 240" enable-background="new 0 0 192 192" xml:space="preserve"><g display="none"><g display="inline"><line fill="#000000" stroke="#E6E7E8" stroke-width="3" stroke-linejoin="round" stroke-miterlimit="10" x1="0" y1="0" x2="192" y2="192"/><line fill="#000000" stroke="#E6E7E8" stroke-width="3" stroke-linejoin="round" stroke-miterlimit="10" x1="192" y1="0" x2="0" y2="192"/><line fill="#000000" stroke="#E6E7E8" stroke-width="3" stroke-linejoin="round" stroke-miterlimit="10" x1="192" y1="96" x2="0" y2="96"/><line fill="#000000" stroke="#E6E7E8" stroke-width="3" stroke-linejoin="round" stroke-miterlimit="10" x1="96" y1="0" x2="96" y2="192"/><path fill="#000000" stroke="#6D6E71" stroke-width="3" stroke-linejoin="round" stroke-miterlimit="10" d="M172,159.563    c0,6.869-5.568,12.438-12.436,12.438H32.437C25.568,172,20,166.432,20,159.563V32.437C20,25.568,25.568,20,32.437,20h127.128    C166.432,20,172,25.568,172,32.437V159.563z"/><path fill="#000000" stroke="#6D6E71" stroke-width="3" stroke-linejoin="round" stroke-miterlimit="10" d="M184,149.526    c0,5.785-6.447,10.474-14.399,10.474H22.4C14.447,160,8,155.312,8,149.526V42.473C8,36.689,14.447,32,22.4,32h147.2    C177.553,32,184,36.689,184,42.473V149.526z"/><path fill="#000000" stroke="#6D6E71" stroke-width="3" stroke-linejoin="round" stroke-miterlimit="10" d="M149.526,8    C155.312,8,160,14.447,160,22.399v147.2c0,7.953-4.688,14.4-10.474,14.4H42.473C36.689,184,32,177.553,32,169.6v-147.2    C32,14.447,36.689,8,42.473,8H149.526z"/><circle fill="#000000" stroke="#6D6E71" stroke-width="3" stroke-linejoin="round" stroke-miterlimit="10" cx="96" cy="96" r="88"/></g></g><g><g><rect x="124.297" y="0.486" transform="matrix(0.7071 0.7071 -0.7071 0.7071 79.2366 -80.235)" width="24.348" height="110.086"/><rect x="83.826" y="78.506" width="24.348" height="105.494"/><rect x="43.356" y="0.486" transform="matrix(-0.7071 0.7071 -0.7071 -0.7071 134.0602 55.5295)" width="24.348" height="110.086"/></g></g><text x="0" y="207" fill="#000000" font-size="5px" font-weight="bold" font-family="'Helvetica Neue', Helvetica, Arial-Unicode, Arial, Sans-serif">Created by Royyan Wijaya</text><text x="0" y="212" fill="#000000" font-size="5px" font-weight="bold" font-family="'Helvetica Neue', Helvetica, Arial-Unicode, Arial, Sans-serif">from the Noun Project</text></svg>